<?xml version="1.0" encoding="UTF-8"?>
<svg version="1.1" xmlns="http://www.w3.org/2000/svg" width="1024" height="1024">
<path d="M0 0 C337.92 0 675.84 0 1024 0 C1024 337.92 1024 675.84 1024 1024 C686.08 1024 348.16 1024 0 1024 C0 686.08 0 348.16 0 0 Z " fill="#FDFEFE" transform="translate(0,0)"/>
<path d="M0 0 C93.72 0 187.44 0 284 0 C284.165 24.915 284.33 49.83 284.5 75.5 C284.57283203 83.36263672 284.64566406 91.22527344 284.72070312 99.32617188 C284.75683594 108.93847656 284.75683594 108.93847656 284.7635498 113.44055176 C284.77099427 116.58066155 284.80093244 119.71968598 284.84460449 122.85949707 C284.89964086 126.86971252 284.91590184 130.8783589 284.90457821 134.88891697 C284.90694444 136.35748367 284.92271858 137.82610738 284.95372105 139.29434872 C285.17439899 150.25826548 285.17439899 150.25826548 282.27467346 154.55880737 C280.28103451 156.55910645 278.21957448 158.26005877 276 160 C274.86467994 161.24938026 273.75333306 162.52145711 272.6796875 163.82421875 C267.68480024 169.62605969 262.13500591 174.89423938 256.66308594 180.2409668 C255.25284764 181.62109409 253.84897703 183.00771862 252.4453125 184.39453125 C251.61531738 185.20768799 250.78532227 186.02084473 249.93017578 186.85864258 C247.79906741 188.9356586 247.79906741 188.9356586 247 192 C247.57105469 192.23332031 248.14210938 192.46664062 248.73046875 192.70703125 C251.54340722 194.30958312 253.2002773 196.23762181 255.3125 198.6875 C260.6664205 204.77747504 266.17191041 210.37764559 272.375 215.59765625 C274.70892727 217.6117906 276.8494761 219.79288337 279 222 C279.86158313 222.73837443 280.72316626 223.47674887 281.61085796 224.23749828 C284.55616742 227.64308167 284.61882071 229.19083101 284.60127258 233.63752747 C284.60554471 234.29108442 284.60981683 234.94464136 284.61421841 235.61800307 C284.62243215 237.8004837 284.59499513 239.98102762 284.56762695 242.16333008 C284.56621611 243.73054967 284.56700917 245.29777256 284.56983948 246.86499023 C284.57127364 251.11484866 284.54188429 255.36400101 284.50696969 259.61369538 C284.47570603 264.05661069 284.47277545 268.49954232 284.46684265 272.94255066 C284.45130421 281.35383244 284.41027581 289.76478916 284.3600952 298.17592782 C284.29374988 309.54339005 284.26676721 320.91094122 284.23758411 332.27854824 C284.19057385 350.1859423 284.09096182 368.09265039 284 386 C231.86 386 179.72 386 126 386 C126.99366871 381.03165646 127.6767048 379.71629842 130.6875 375.9375 C134.92559104 370.49327731 138.92995498 364.90986181 142.875 359.25 C143.47344727 358.39293457 144.07189453 357.53586914 144.68847656 356.65283203 C147.50914308 352.60469556 150.31542715 348.54731053 153.09765625 344.47265625 C153.57928223 343.76786133 154.0609082 343.06306641 154.55712891 342.33691406 C155.43605532 341.04790489 156.31232819 339.75707944 157.18505859 338.46386719 C157.97402496 337.30494427 158.77732678 336.15560148 159.59716797 335.01831055 C161.04613024 332.98915979 161.04613024 332.98915979 162.34561157 330.70318604 C164.68470644 327.08124478 166.45913889 324.44895721 170.71174622 323.20988464 C174.00817068 322.9587318 177.19279436 322.98708846 180.49609375 323.12109375 C182.27911644 323.14019554 182.27911644 323.14019554 184.09815979 323.15968323 C187.88004981 323.20990739 191.6570706 323.32279579 195.4375 323.4375 C198.00709196 323.48266007 200.57675944 323.52372195 203.14648438 323.56054688 C209.43263975 323.65956367 215.71597206 323.80999271 222 324 C227.39182219 280.42212962 227.39182219 280.42212962 212.87109375 241.32421875 C205.49052293 233.20259448 196.91761006 226.25871955 187.94824219 219.96679688 C184.27907039 217.35786648 181.76479372 214.5357334 179 211 C178.34 210.67 177.68 210.34 177 210 C177.13523071 208.54484985 177.13523071 208.54484985 177.27319336 207.06030273 C179.35506201 186.76621474 179.35506201 186.76621474 172.48469543 168.37287903 C166.80061192 161.70208907 159.9524754 156.28694147 153 151 C148.48722909 147.30273592 144.67490206 143.51487967 141 139 C140.34 138.67 139.68 138.34 139 138 C138.938125 139.03125 138.87625 140.0625 138.8125 141.125 C138.15560025 146.45527226 136.20136226 151.24529468 134.3359375 156.25390625 C132.60993832 161.09376945 131.24186368 165.98207626 129.89453125 170.94140625 C129 174 129 174 127.96875 176.53515625 C126.88482871 179.29303663 126.28906689 181.97419277 125.6875 184.875 C124.29399423 191.12466226 122.35520225 197.07135923 120.2734375 203.12109375 C118.18664912 209.31952225 116.60872706 215.66395209 115 222 C116.32064453 221.59007812 116.32064453 221.59007812 117.66796875 221.171875 C121 221 121 221 123.67578125 223.140625 C124.57489193 224.15960589 125.45285156 225.19751407 126.3125 226.25 C126.78397461 226.79487061 127.25544922 227.33974121 127.74121094 227.90112305 C129.18482756 229.58218301 130.59654398 231.28532773 132 233 C132.81339844 233.99128906 133.62679687 234.98257813 134.46484375 236.00390625 C135.9629712 237.84519452 137.4566301 239.69012955 138.9453125 241.5390625 C141.25377362 244.30394939 143.71561604 246.80983874 146.3046875 249.30859375 C148.81946 251.81757184 151.11283079 254.50564345 153.421875 257.203125 C154.96801194 259.01968133 154.96801194 259.01968133 156.703125 260.609375 C158 262 158 262 158 264 C158.83192871 263.95286865 158.83192871 263.95286865 159.68066406 263.90478516 C162.20335792 263.7797583 164.72540122 263.70194713 167.25 263.625 C168.12269531 263.57472656 168.99539063 263.52445313 169.89453125 263.47265625 C172.39606111 263.41536931 174.56012862 263.43686595 177 264 C181 268.44311377 181 268.44311377 181 272 C176.38 272 171.76 272 167 272 C167.66 273.32 168.32 274.64 169 276 C171.76815797 276.35795146 174.23195792 276.5145177 177 276.5 C179.76804208 276.4854823 182.23184203 276.64204854 185 277 C186.5 279.03125 186.5 279.03125 187 281 C185.06324055 282.45932573 183.12562712 283.91749264 181.1875 285.375 C180.64029297 285.7875 180.09308594 286.2 179.52929688 286.625 C172.0514318 292.24472891 172.0514318 292.24472891 166.6015625 292.33813477 C165.49611084 292.36057755 164.39065918 292.38302032 163.25170898 292.40614319 C162.05489502 292.41778 160.85808105 292.42941681 159.625 292.44140625 C158.39015869 292.45517807 157.15531738 292.46894989 155.88305664 292.48313904 C153.26371759 292.50644045 150.64431886 292.52369081 148.02490234 292.53540039 C144.04306831 292.55508195 140.063186 292.63708027 136.08203125 292.71289062 C133.533872 292.7295583 130.98569178 292.74332114 128.4375 292.75390625 C127.25687988 292.78376114 126.07625977 292.81361603 124.85986328 292.84437561 C116.24587888 292.79922339 110.62821713 290.52358815 104 285 C98.25906444 278.84859175 95.71711795 272.95759806 95.6875 264.4375 C95.67074219 263.34308594 95.65398437 262.24867188 95.63671875 261.12109375 C95.71190717 258.54406042 96.12156048 256.63519292 96.94482422 254.16455078 C99.12813657 247.38435466 99.30986501 242.94821703 96.046875 236.5625 C94.67757718 234.00250843 93.22440936 231.50053158 91.75 229 C90.6612764 227.07505943 89.58366401 225.14437894 88.51055908 223.21069336 C87.53814546 221.4711875 86.53885374 219.74678677 85.53808594 218.0234375 C84.12900537 215.2535877 83.41071153 213.0583087 83 210 C85.90600261 208.74335022 87.79604584 208 91 208 C91.13792969 206.8759375 91.27585937 205.751875 91.41796875 204.59375 C92.94417385 192.42687498 94.73451331 180.53707645 97.89453125 168.671875 C99.7440741 161.2737036 100.89433219 153.71217519 102.16162109 146.19726562 C103.28240237 139.64443725 104.65562187 133.25180559 106.32397461 126.81787109 C107.53637629 121.7642271 108.15078039 116.63856275 108.81640625 111.49023438 C109.70982245 105.01553419 111.24007625 99.45305376 113 93 C123.23 93 133.46 93 144 93 C144.33 96.96 144.66 100.92 145 105 C147.42392609 108.09758068 149.27332718 110.03884776 152.25 112.4375 C153.79553642 113.78071653 155.33700252 115.12862659 156.875 116.48046875 C157.7 117.19509277 158.525 117.9097168 159.375 118.64599609 C164.20141606 122.97414934 168.70502946 127.63065866 173.25 132.25 C175.00271173 134.02850552 176.75777715 135.80469577 178.515625 137.578125 C179.63372559 138.71362793 179.63372559 138.71362793 180.77441406 139.87207031 C183.0765483 142.07318944 185.50281958 144.02572442 188 146 C189.4765625 147.66796875 189.4765625 147.66796875 190.625 149.1875 C192.75800103 152.20866608 192.75800103 152.20866608 196 153 C198.16715557 152.12516085 198.16715557 152.12516085 200 151 C200 150.34 200 149.68 200 149 C200.66 149 201.32 149 202 149 C202.25523437 148.42024414 202.51046875 147.84048828 202.7734375 147.24316406 C204.12584777 144.76984688 205.63732524 143.10397891 207.625 141.109375 C208.33140625 140.40039062 209.0378125 139.69140625 209.765625 138.9609375 C210.50296875 138.23132813 211.2403125 137.50171875 212 136.75 C212.73734375 136.00492188 213.4746875 135.25984375 214.234375 134.4921875 C214.94078125 133.78835938 215.6471875 133.08453125 216.375 132.359375 C217.02210938 131.71452148 217.66921875 131.06966797 218.3359375 130.40527344 C220 129 220 129 222 129 C222 106.56 222 84.12 222 61 C169.2 61 116.4 61 62 61 C62 140.53 62 220.06 62 302 C61.34 302 60.68 302 60 302 C59.72615479 302.57492187 59.45230957 303.14984375 59.17016602 303.7421875 C58.00292573 305.99435485 56.70684515 308.03061985 55.27734375 310.125 C54.74375244 310.90738037 54.21016113 311.68976074 53.66040039 312.49584961 C53.09184326 313.32221924 52.52328613 314.14858887 51.9375 315 C51.3489624 315.85795166 50.7604248 316.71590332 50.15405273 317.59985352 C46.37311258 323.08348239 42.46600624 328.44241047 38.42578125 333.73828125 C34.6210335 338.79128454 31.06007105 344.02228667 27.44921875 349.21435547 C22.85799227 355.80558551 18.16281507 362.31455449 13.42749023 368.80273438 C9.7941267 373.81239769 6.42791068 378.9012949 3.26953125 384.2265625 C2.85058594 384.81179688 2.43164062 385.39703125 2 386 C1.34 386 0.68 386 0 386 C0 258.62 0 131.24 0 0 Z " fill="#030202" transform="translate(220,310)"/>
<path d="M0 0 C20.46 0 40.92 0 62 0 C62 26.73 62 53.46 62 81 C132.29 81 202.58 81 275 81 C275 101.46 275 121.92 275 143 C184.25 143 93.5 143 0 143 C0 95.81 0 48.62 0 0 Z " fill="#030202" transform="translate(528,553)"/>
<path d="M0 0 C91.08 0 182.16 0 276 0 C276 20.79 276 41.58 276 63 C205.38 63 134.76 63 62 63 C62 87.09 62 111.18 62 136 C41.54 136 21.08 136 0 136 C0 91.12 0 46.24 0 0 Z " fill="#070606" transform="translate(528,309)"/>
<path d="M0 0 C7.54863094 0.2032733 15.09577773 0.24247506 22.64675672 0.2742836 C36.10501499 0.33516309 49.55844879 0.52035441 63.01409565 0.78675674 C76.0636593 1.04484613 89.11190006 1.2424971 102.16350971 1.36097549 C102.97160325 1.36833175 103.77969678 1.375688 104.612278 1.38326718 C108.66734352 1.41981539 112.72241822 1.4551975 116.77749906 1.49000047 C150.27714869 1.77901471 183.76779819 2.29444393 217.26360737 2.89906143 C217.26360737 22.69906143 217.26360737 42.49906143 217.26360737 62.89906143 C182.65536548 63.45163714 148.05145112 63.91265347 113.44011628 64.17569466 C109.34147729 64.20695721 105.24284765 64.23931576 101.1442226 64.27235244 C99.92043065 64.28218908 99.92043065 64.28218908 98.67191563 64.29222444 C85.51178937 64.40060905 72.35443139 64.59748504 59.19594007 64.82788133 C45.6640941 65.06281427 32.13368355 65.20076531 18.59988241 65.2512738 C11.00921386 65.28231714 3.42433393 65.35670986 -4.16426243 65.54231285 C-57.20213311 66.80328273 -57.20213311 66.80328273 -70.76494278 53.93030284 C-74.71409275 49.78014638 -78.06678672 45.35383141 -81.0942656 40.49581645 C-82.49527094 38.2803559 -83.79819171 36.63671226 -85.73639263 34.89906143 C-68.64415034 -1.91920888 -35.44833876 -0.98122211 0 0 Z " fill="#020201" transform="translate(585.7363926321268,466.10093857347965)"/>
<path d="M0 0 C10.23 0 20.46 0 31 0 C31.495 5.94 31.495 5.94 32 12 C34.42392609 15.09758068 36.27332718 17.03884776 39.25 19.4375 C40.79553642 20.78071653 42.33700252 22.12862659 43.875 23.48046875 C45.1125 24.55240479 45.1125 24.55240479 46.375 25.64599609 C51.20141606 29.97414934 55.70502946 34.63065866 60.25 39.25 C62.00271173 41.02850552 63.75777715 42.80469577 65.515625 44.578125 C66.26102539 45.33512695 67.00642578 46.09212891 67.77441406 46.87207031 C70.07646085 49.07310584 72.50384803 51.0246602 75 53 C76.44140625 54.66796875 76.44140625 54.66796875 77.5625 56.1875 C80.22953143 59.2936693 80.22953143 59.2936693 84 60 C84 60.66 84 61.32 84 62 C82.6015625 63.375 82.6015625 63.375 80.625 65 C79.92874512 65.61053223 79.23249023 66.22106445 78.51513672 66.85009766 C76 69 76 69 73.40039062 70.88818359 C68.99178649 74.48229729 65.93956186 77.63944084 65.09912109 83.37207031 C64.67533405 88.45790073 64.76544357 93.52779268 64.875 98.625 C64.87694497 100.41015709 64.87437907 102.19532509 64.8671875 103.98046875 C64.85941633 108.32218439 64.91278924 112.65919587 65 117 C64.67 117 64.34 117 64 117 C64.09015381 116.0298999 64.18030762 115.0597998 64.27319336 114.06030273 C66.35506201 93.76621474 66.35506201 93.76621474 59.48469543 75.37287903 C53.80061192 68.70208907 46.9524754 63.28694147 40 58 C35.48722909 54.30273592 31.67490206 50.51487967 28 46 C27.01 45.505 27.01 45.505 26 45 C25.9071875 46.546875 25.9071875 46.546875 25.8125 48.125 C25.15560025 53.45527226 23.20136226 58.24529468 21.3359375 63.25390625 C19.60993832 68.09376945 18.24186368 72.98207626 16.89453125 77.94140625 C16 81 16 81 14.96875 83.53515625 C13.88482871 86.29303663 13.28906689 88.97419277 12.6875 91.875 C11.29399423 98.12466226 9.35520225 104.07135923 7.2734375 110.12109375 C5.18664912 116.31952225 3.60872706 122.66395209 2 129 C3.32064453 128.59007812 3.32064453 128.59007812 4.66796875 128.171875 C8 128 8 128 10.67578125 130.140625 C11.57489193 131.15960589 12.45285156 132.19751407 13.3125 133.25 C13.78397461 133.79487061 14.25544922 134.33974121 14.74121094 134.90112305 C16.18482756 136.58218301 17.59654398 138.28532773 19 140 C19.81339844 140.99128906 20.62679687 141.98257813 21.46484375 143.00390625 C22.9629712 144.84519452 24.4566301 146.69012955 25.9453125 148.5390625 C28.25377362 151.30394939 30.71561604 153.80983874 33.3046875 156.30859375 C35.81946 158.81757184 38.11283079 161.50564345 40.421875 164.203125 C41.96801194 166.01968133 41.96801194 166.01968133 43.703125 167.609375 C45 169 45 169 45 171 C45.55461914 170.9685791 46.10923828 170.9371582 46.68066406 170.90478516 C49.20335792 170.7797583 51.72540122 170.70194713 54.25 170.625 C55.12269531 170.57472656 55.99539063 170.52445313 56.89453125 170.47265625 C59.39606111 170.41536931 61.56012862 170.43686595 64 171 C68 175.44311377 68 175.44311377 68 179 C63.38 179 58.76 179 54 179 C54.66 180.32 55.32 181.64 56 183 C58.76815797 183.35795146 61.23195792 183.5145177 64 183.5 C66.76804208 183.4854823 69.23184203 183.64204854 72 184 C73.5 186.03125 73.5 186.03125 74 188 C72.06324055 189.45932573 70.12562712 190.91749264 68.1875 192.375 C67.36668945 192.99375 67.36668945 192.99375 66.52929688 193.625 C59.0514318 199.24472891 59.0514318 199.24472891 53.6015625 199.33813477 C52.49611084 199.36057755 51.39065918 199.38302032 50.25170898 199.40614319 C49.05489502 199.41778 47.85808105 199.42941681 46.625 199.44140625 C45.39015869 199.45517807 44.15531738 199.46894989 42.88305664 199.48313904 C40.26371759 199.50644045 37.64431886 199.52369081 35.02490234 199.53540039 C31.04306831 199.55508195 27.063186 199.63708027 23.08203125 199.71289062 C20.533872 199.7295583 17.98569178 199.74332114 15.4375 199.75390625 C14.25687988 199.78376114 13.07625977 199.81361603 11.85986328 199.84437561 C3.24587888 199.79922339 -2.37178287 197.52358815 -9 192 C-14.74093556 185.84859175 -17.28288205 179.95759806 -17.3125 171.4375 C-17.32925781 170.34308594 -17.34601563 169.24867188 -17.36328125 168.12109375 C-17.28809283 165.54406042 -16.87843952 163.63519292 -16.05517578 161.16455078 C-13.87186343 154.38435466 -13.69013499 149.94821703 -16.953125 143.5625 C-18.32242282 141.00250843 -19.77559064 138.50053158 -21.25 136 C-22.3387236 134.07505943 -23.41633599 132.14437894 -24.48944092 130.21069336 C-25.46185454 128.4711875 -26.46114626 126.74678677 -27.46191406 125.0234375 C-28.87099463 122.2535877 -29.58928847 120.0583087 -30 117 C-27.09399739 115.74335022 -25.20395416 115 -22 115 C-21.86207031 113.8759375 -21.72414063 112.751875 -21.58203125 111.59375 C-20.05582615 99.42687498 -18.26548669 87.53707645 -15.10546875 75.671875 C-13.2559259 68.2737036 -12.10566781 60.71217519 -10.83837891 53.19726562 C-9.71759763 46.64443725 -8.34437813 40.25180559 -6.67602539 33.81787109 C-5.46362371 28.7642271 -4.84921961 23.63856275 -4.18359375 18.49023438 C-3.29017755 12.01553419 -1.75992375 6.45305376 0 0 Z " fill="#E05C28" transform="translate(333,403)"/>
<path d="M0 0 C61.71 0 123.42 0 187 0 C187 16.5 187 33 187 50 C125.29 50 63.58 50 0 50 C0 33.5 0 17 0 0 Z " fill="#E15D2A" transform="translate(617,555)"/>
<path d="M0 0 C3.49279484 0.47028475 5.55730843 2.11433297 8.29232788 4.23536682 C17.80758435 11.35797309 26.86328655 11.25189308 38.375 11.0625 C40.19011568 11.06558252 42.00522917 11.07271766 43.8203125 11.08398438 C48.21491504 11.10260492 52.60589954 11.0667709 57 11 C52.41979899 20.34825701 45.85553608 28.59172559 39.578125 36.84667969 C35.63688117 42.06434907 31.96755612 47.42077389 28.38745117 52.89086914 C25.7658749 56.88921734 23.03367723 60.74234365 20.05859375 64.484375 C18.79564314 66.13977961 18.79564314 66.13977961 18 69 C17.34 69 16.68 69 16 69 C14.95357024 71.03589657 13.97546977 73.05994949 13.10823059 75.17939758 C10.32786316 81.8037676 7.00106848 87.83455247 1 92 C-8.91334653 94.99836262 -19.80868247 93.88328093 -30.02416992 93.30462646 C-33.85721014 93.10843517 -37.69265918 93.02311594 -41.52929688 92.92773438 C-49.02608392 92.72535338 -56.5109907 92.40227973 -64 92 C-63.06614226 90.42426001 -62.12977315 88.85000824 -61.19238281 87.27636719 C-60.67121887 86.39954285 -60.15005493 85.52271851 -59.61309814 84.61932373 C-57.18849671 80.68229355 -54.4917134 76.96997539 -51.75 73.25 C-50.60255232 71.67731112 -49.45542011 70.10439202 -48.30859375 68.53125 C-47.74769043 67.76425781 -47.18678711 66.99726562 -46.60888672 66.20703125 C-44.32197328 63.06989961 -42.06431748 59.91237616 -39.8125 56.75 C-37.44536088 53.4264744 -35.07592689 50.105169 -32.6875 46.796875 C-26.8314832 38.67789216 -21.18336193 30.42669621 -15.56152344 22.14404297 C-10.48673634 14.67982286 -5.29900125 7.3063876 0 0 Z " fill="#E25C27" transform="translate(314,604)"/>
<path d="M0 0 C2.91889148 -0.16216064 5.82879225 -0.28091202 8.75 -0.375 C9.9875 -0.45041016 9.9875 -0.45041016 11.25 -0.52734375 C13.63872455 -0.58513547 15.67538097 -0.56146413 18 0 C22 4.4969697 22 4.4969697 22 8 C18.37 8 14.74 8 11 8 C11 7.67 11 7.34 11 7 C12.65 6.67 14.3 6.34 16 6 C15.01 6 14.02 6 13 6 C13.66 4.35 14.32 2.7 15 1 C10.05 1 5.1 1 0 1 C0 0.67 0 0.34 0 0 Z " fill="#EA703C" transform="translate(379,574)"/>
<path d="M0 0 C0.33 0 0.66 0 1 0 C1.07803518 4.29193499 1.03831564 8.53254915 0.6875 12.8125 C0.62949219 13.54082031 0.57148438 14.26914062 0.51171875 15.01953125 C-0.11081633 17.42888457 -1.12880232 18.4097328 -3 20 C-2.69055299 17.41626766 -2.37756043 14.83304867 -2.0625 12.25 C-1.97548828 11.52039063 -1.88847656 10.79078125 -1.79882812 10.0390625 C-1.37972591 6.62415558 -0.882726 3.32396457 0 0 Z " fill="#F19974" transform="translate(324,446)"/>
<path d="M0 0 C0.98120464 3.05263664 0.98120464 4.94736336 0 8 C0.99 8 1.98 8 3 8 C3 8.66 3 9.32 3 10 C1.35 10.33 -0.3 10.66 -2 11 C-1.125 3.375 -1.125 3.375 0 0 Z " fill="#F6C2A5" transform="translate(337,521)"/>
<path d="M0 0 C1.98362069 2.91708924 1.9876191 4.12380904 1.625 7.75 C1.41875 8.8225 1.2125 9.895 1 11 C0.34 11 -0.32 11 -1 11 C-1.33 11.99 -1.66 12.98 -2 14 C-1.85795259 12.41632253 -1.71119847 10.83306682 -1.5625 9.25 C-1.48128906 8.36828125 -1.40007812 7.4865625 -1.31640625 6.578125 C-1.03761535 4.30649548 -0.61209423 2.20148177 0 0 Z " fill="#E66837" transform="translate(327,434)"/>
<path d="M0 0 C0.33 0.66 0.66 1.32 1 2 C0.00390625 3.9453125 0.00390625 3.9453125 -1.4375 6.125 C-1.91058594 6.84945312 -2.38367188 7.57390625 -2.87109375 8.3203125 C-3.24363281 8.87460937 -3.61617188 9.42890625 -4 10 C-4.66 9.67 -5.32 9.34 -6 9 C-4.02 6.03 -2.04 3.06 0 0 Z " fill="#F8DDCE" transform="translate(367,621)"/>
<path d="M0 0 C0.33 0.66 0.66 1.32 1 2 C0.06421005 4.35981813 -0.93347808 6.69631264 -2 9 C-2.66 9 -3.32 9 -4 9 C-3.67 7.02 -3.34 5.04 -3 3 C-2.34 3 -1.68 3 -1 3 C-0.67 2.01 -0.34 1.02 0 0 Z " fill="#E46E43" transform="translate(355,461)"/>
</svg>
